<svg width="48" height="48" viewBox="0 0 48 48" fill="none" xmlns="http://www.w3.org/2000/svg">
<rect width="48" height="48" rx="8" fill="white"/>
<path d="M16.4999 22.125V31.5M16.4999 16.5V16.5187M23.9999 31.5V22.125M31.4999 31.5V25.875C31.4999 24.8804 31.1049 23.9266 30.4016 23.2233C29.6983 22.5201 28.7445 22.125 27.7499 22.125C26.7554 22.125 25.8016 22.5201 25.0983 23.2233C24.395 23.9266 23.9999 24.8804 23.9999 25.875M12.75 9H35.25C37.3211 9 39 10.6789 39 12.75V35.25C39 37.3211 37.3211 39 35.25 39H12.75C10.6789 39 9 37.3211 9 35.25V12.75C9 10.6789 10.6789 9 12.75 9Z" stroke="#018762" stroke-width="3" stroke-linecap="round" stroke-linejoin="round"/>
</svg>
